<?xml version="1.0" standalone="no"?>
<!DOCTYPE svg PUBLIC "-//W3C//DTD SVG 20010904//EN"
 "http://www.w3.org/TR/2001/REC-SVG-20010904/DTD/svg10.dtd">
<svg version="1.0" xmlns="http://www.w3.org/2000/svg"
 width="1096.000000pt" height="1096.000000pt" viewBox="0 0 1096.000000 1096.000000"
 preserveAspectRatio="xMidYMid meet">

<g transform="translate(0.000000,1096.000000) scale(0.100000,-0.100000)"
fill="#000000" stroke="none">
<path d="M5504 9810 c-130 -26 -268 -116 -337 -219 -11 -16 -27 -25 -52 -27
-20 -2 -56 -15 -80 -28 -133 -79 -174 -238 -95 -370 29 -49 106 -123 117 -113
1 2 -4 35 -12 73 -18 83 -19 140 -4 200 13 49 24 56 33 20 3 -13 27 -47 53
-76 53 -59 139 -106 212 -115 25 -3 55 -8 66 -10 11 -3 41 -33 68 -69 34 -46
55 -66 77 -71 39 -9 50 0 50 38 1 125 71 188 159 143 57 -30 77 -89 60 -175
-11 -56 -10 -62 25 -150 120 -302 189 -423 327 -567 203 -212 238 -343 255
-946 l6 -227 21 19 c65 61 197 40 277 -45 21 -23 30 -25 65 -19 77 13 149 65
186 136 19 36 25 88 13 101 -4 3 -19 0 -35 -8 -32 -17 -96 -20 -132 -6 -41 16
-94 68 -116 116 -15 32 -21 64 -21 115 0 78 4 89 89 228 69 115 85 168 86 277
0 70 -5 103 -23 150 -28 74 -103 175 -171 233 -69 59 -151 161 -200 252 -51
95 -91 217 -130 401 -78 355 -114 442 -231 559 -129 129 -282 191 -469 189
-53 -1 -114 -5 -137 -9z"/>
<path d="M5182 9070 c-18 -4 -43 -17 -55 -28 -12 -11 -28 -17 -34 -15 -15 5
-17 -6 -4 -26 7 -11 10 -11 17 1 5 7 34 20 64 27 74 18 97 30 79 42 -16 10
-22 10 -67 -1z"/>
<path d="M5216 8954 c-47 -36 -54 -56 -22 -62 17 -4 31 11 68 70 24 38 10 35
-46 -8z"/>
<path d="M5752 8918 c-7 -7 -12 -16 -12 -21 0 -5 7 -1 16 8 9 9 14 18 12 20
-2 3 -10 -1 -16 -7z"/>
<path d="M5208 8609 c-29 -16 -21 -37 19 -48 20 -6 38 -9 39 -8 1 1 9 17 18
35 l17 32 -38 0 c-21 0 -46 -5 -55 -11z"/>
<path d="M5753 8265 c-19 -14 -273 -358 -273 -370 0 -2 8 -2 18 1 14 5 14 4 2
-4 -8 -6 -17 -9 -21 -7 -13 9 -309 -389 -309 -415 0 -4 7 -7 15 -7 8 0 12 4 9
8 -8 14 26 70 38 63 7 -4 8 -3 4 5 -10 15 13 43 30 37 6 -2 28 11 47 31 30 30
34 39 27 59 -10 25 -2 32 17 13 6 -6 17 -8 24 -3 9 5 6 10 -10 15 -18 7 -20
12 -11 29 6 11 16 20 22 20 6 0 3 -9 -7 -20 -31 -34 -6 -22 29 15 30 30 38 34
60 25 23 -8 24 -7 17 13 -5 14 -4 25 4 32 7 5 16 21 20 35 8 25 8 25 -14 6
-29 -27 -34 -16 -5 12 13 12 24 19 24 13 0 -5 8 -8 18 -7 18 1 21 -23 8 -79
-4 -16 11 17 32 75 67 185 142 298 234 356 52 33 152 58 205 50 87 -12 168
-73 222 -168 15 -27 31 -45 36 -40 4 4 5 2 1 -5 -4 -7 1 -38 11 -70 13 -42 17
-92 17 -183 0 -113 -3 -134 -32 -220 -18 -53 -63 -150 -103 -220 -39 -69 -147
-272 -240 -452 -183 -356 -250 -471 -339 -581 -68 -85 -198 -213 -292 -286
l-68 -53 0 -61 c0 -34 -3 -92 -7 -129 -3 -39 -2 -68 3 -68 11 0 190 197 327
358 169 200 282 382 442 707 216 441 308 688 340 905 14 93 16 121 8 117 -5
-3 -10 24 -11 60 -2 36 -7 74 -13 85 -7 13 -7 18 2 16 14 -3 20 40 7 48 -5 3
-6 14 -3 24 3 11 0 20 -10 24 -8 3 -15 13 -15 22 0 10 -5 14 -15 10 -9 -3 -15
0 -15 10 0 9 5 12 12 8 7 -4 8 -3 4 4 -4 6 -13 9 -21 6 -10 -4 -13 2 -11 20 2
14 -1 23 -5 20 -5 -2 -17 4 -27 14 -10 10 -24 16 -31 14 -7 -2 -16 0 -20 5 -3
6 -31 23 -61 39 -47 25 -66 29 -135 29 -72 -1 -88 -5 -156 -38 -41 -20 -78
-37 -82 -37 -16 0 -5 24 24 51 34 32 35 37 2 14z m-39 -83 c3 -5 -1 -9 -9 -9
-8 0 -12 4 -9 9 3 4 7 8 9 8 2 0 6 -4 9 -8z m-145 -289 c-10 -32 -13 -35 -20
-18 -4 13 -2 24 7 31 8 6 14 17 14 24 0 7 3 11 6 7 3 -3 0 -23 -7 -44z m-119
-82 c0 -5 -7 -12 -16 -15 -8 -3 -12 -11 -8 -17 4 -8 3 -9 -4 -5 -7 4 -12 1
-12 -8 0 -9 -4 -16 -10 -16 -15 0 -12 7 12 40 21 30 38 39 38 21z"/>
<path d="M5506 7704 c-9 -26 -16 -52 -15 -58 0 -6 9 13 20 43 10 30 17 56 15
58 -2 2 -11 -17 -20 -43z"/>
<path d="M5473 7675 c-3 -9 -3 -18 -1 -21 3 -3 8 4 11 16 6 23 -1 27 -10 5z"/>
<path d="M5476 7604 c-4 -14 -5 -28 -3 -31 3 -2 8 8 11 23 4 14 5 28 3 31 -3
2 -8 -8 -11 -23z"/>
<path d="M5436 7475 c-3 -9 -6 -22 -5 -28 0 -7 5 -1 10 12 5 13 8 26 5 28 -2
2 -6 -3 -10 -12z"/>
<path d="M5151 7419 c-6 -18 -11 -37 -10 -43 0 -6 7 7 15 28 8 22 12 41 10 43
-2 2 -9 -10 -15 -28z"/>
<path d="M5126 7323 c-3 -21 -5 -72 -4 -113 1 -69 2 -66 8 35 8 116 7 141 -4
78z"/>
<path d="M5351 7209 c-6 -18 -11 -37 -10 -43 0 -6 7 7 15 28 8 22 12 41 10 43
-2 2 -9 -10 -15 -28z"/>
<path d="M5312 7083 c-12 -37 -20 -69 -18 -71 2 -2 14 27 26 63 12 36 20 68
18 70 -2 3 -14 -26 -26 -62z"/>
<path d="M6431 7094 c0 -11 3 -14 6 -6 3 7 2 16 -1 19 -3 4 -6 -2 -5 -13z"/>
<path d="M5108 6822 l-7 -234 -74 -91 c-41 -51 -154 -175 -253 -277 -271 -281
-288 -300 -276 -312 6 -6 8 -17 5 -25 -23 -60 379 345 499 503 91 119 132 193
188 334 46 115 100 261 100 269 0 17 -19 -22 -35 -71 -11 -32 -23 -58 -28 -58
-4 0 -6 -4 -2 -9 3 -5 1 -12 -4 -15 -5 -3 -12 1 -15 9 -3 9 1 18 9 21 8 4 12
10 9 16 -3 5 -13 1 -22 -9 -10 -10 -29 -26 -44 -36 -16 -10 -29 -25 -30 -35
-1 -9 -5 44 -8 118 l-5 135 -7 -233z m-578 -896 c0 -2 -7 -7 -16 -10 -8 -3
-12 -2 -9 4 6 10 25 14 25 6z"/>
<path d="M2972 7028 c-20 -20 -14 -56 24 -141 38 -86 359 -885 439 -1092 68
-176 112 -242 137 -203 12 21 9 38 -12 65 -17 22 -113 255 -191 463 -38 102
-96 250 -158 400 -93 225 -171 429 -178 463 -10 53 -34 72 -61 45z"/>
<path d="M3066 6943 c14 -38 37 -97 50 -133 13 -36 29 -74 34 -85 5 -11 37
-90 71 -175 33 -85 67 -168 74 -185 8 -16 44 -109 81 -205 37 -96 95 -246 128
-334 l61 -159 100 2 c55 1 103 5 106 9 4 4 -20 66 -53 137 -32 72 -92 218
-133 325 -41 107 -113 296 -160 420 -48 124 -91 236 -96 250 -6 16 -56 55
-142 113 -73 48 -136 87 -139 87 -4 0 4 -30 18 -67z"/>
<path d="M5231 6914 c0 -11 3 -14 6 -6 3 7 2 16 -1 19 -3 4 -6 -2 -5 -13z"/>
<path d="M4027 6408 c6 -42 49 -166 112 -318 17 -41 36 -94 41 -118 10 -37 32
-63 45 -50 7 7 -23 186 -40 241 -53 165 -88 248 -104 245 -9 -2 -20 5 -26 16
-19 38 -34 30 -28 -16z"/>
<path d="M6611 5904 c0 -11 3 -14 6 -6 3 7 2 16 -1 19 -3 4 -6 -2 -5 -13z"/>
<path d="M6622 5830 c0 -19 2 -27 5 -17 2 9 2 25 0 35 -3 9 -5 1 -5 -18z"/>
<path d="M6632 5745 c0 -16 2 -22 5 -12 2 9 2 23 0 30 -3 6 -5 -1 -5 -18z"/>
<path d="M4087 5692 c-10 -10 -14 -21 -11 -24 7 -8 54 5 54 15 0 4 0 12 0 17
0 16 -26 11 -43 -8z"/>
<path d="M6632 5670 c0 -19 2 -27 5 -17 2 9 2 25 0 35 -3 9 -5 1 -5 -18z"/>
<path d="M3657 5618 c-7 -4 -7 -11 2 -22 21 -26 65 -18 73 13 3 14 -55 22 -75
9z"/>
<path d="M3787 5623 c-19 -31 10 -33 401 -31 345 3 390 5 382 18 -8 13 -65 15
-394 18 -214 2 -386 0 -389 -5z"/>
<path d="M6425 5594 c-288 -50 -601 -90 -1021 -129 l-60 -6 -22 -212 c-13
-117 -36 -369 -52 -562 -16 -192 -34 -393 -40 -445 -15 -146 -12 -293 10 -425
26 -162 32 -229 84 -911 55 -707 66 -847 71 -852 3 -4 333 -21 412 -22 l51 0
7 53 c4 28 29 214 57 412 59 425 71 650 45 865 -9 69 -26 211 -38 317 l-23
192 73 223 c101 306 89 282 113 228 11 -25 56 -133 100 -240 43 -107 95 -233
115 -280 19 -47 110 -229 203 -405 92 -176 263 -509 380 -741 l212 -421 193
88 c243 110 231 106 239 73 4 -14 9 -24 11 -22 2 2 -11 55 -30 118 -19 63 -60
226 -90 361 -100 444 -130 532 -323 934 -197 412 -240 525 -326 860 -78 305
-108 409 -182 642 l-45 142 32 93 c17 51 37 96 43 100 14 10 22 11 -199 -28z"/>
<path d="M5222 5538 l-2 -68 62 0 c72 0 74 7 3 11 l-50 3 -6 61 -6 60 -1 -67z"/>
<path d="M3207 5540 l-309 -5 -19 -24 c-28 -34 -24 -75 10 -113 l29 -33 310
-3 310 -3 -3 -792 c-6 -1954 -3 -3422 9 -3430 6 -4 52 -6 101 -5 l90 3 -2
1325 c-2 729 -5 1679 -8 2113 l-5 787 640 0 c701 0 685 -1 709 58 15 37 6 74
-26 104 l-25 23 -751 0 c-414 0 -891 -2 -1060 -5z"/>
<path d="M7564 2297 c3 -25 -3 -32 -48 -57 -28 -17 -46 -30 -40 -30 15 0 104
58 103 67 0 5 -5 17 -10 28 -8 17 -9 16 -5 -8z"/>
<path d="M7106 2207 c3 -10 9 -15 12 -12 3 3 0 11 -7 18 -10 9 -11 8 -5 -6z"/>
<path d="M7120 2177 c0 -3 9 -25 20 -51 21 -47 33 -54 60 -35 12 8 10 9 -7 4
-12 -3 -25 -1 -29 6 -4 7 -3 9 4 5 6 -3 14 -2 17 4 4 6 3 10 -2 9 -23 -4 -35
2 -29 17 3 8 2 12 -4 9 -6 -3 -10 1 -10 9 0 8 -4 18 -10 21 -5 3 -10 4 -10 2z"/>
<path d="M5842 1970 c-1 -14 -7 -42 -12 -62 -10 -33 -15 -37 -48 -41 -34 -3
-33 -4 10 -5 42 -2 48 1 53 21 4 13 5 43 2 68 -2 24 -4 33 -5 19z"/>
<path d="M5382 1939 c-2 -48 8 -60 46 -58 10 1 6 4 -8 8 -21 6 -26 15 -31 51
l-6 45 -1 -46z"/>
<path d="M7697 1913 c-4 -3 -7 -21 -7 -38 0 -45 -19 -102 -78 -235 -49 -112
-70 -199 -57 -239 5 -17 24 -5 158 99 184 143 202 161 193 193 -8 34 -70 123
-124 180 -43 44 -69 56 -85 40z"/>
<path d="M5732 1518 c-47 -63 -69 -83 -141 -131 -61 -40 -107 -101 -117 -154
-4 -18 -4 -36 -2 -38 2 -3 87 2 189 10 101 8 190 15 198 15 32 0 -18 297 -56
336 -22 22 -29 18 -71 -38z"/>
</g>
</svg>
