<?xml version="1.0" encoding="UTF-8"?>
<!DOCTYPE svg PUBLIC "-//W3C//DTD SVG 1.1//EN" "http://www.w3.org/Graphics/SVG/1.1/DTD/svg11.dtd">
<svg xmlns="http://www.w3.org/2000/svg" version="1.1" width="1096px" height="1096px" style="shape-rendering:geometricPrecision; text-rendering:geometricPrecision; image-rendering:optimizeQuality; fill-rule:evenodd; clip-rule:evenodd" xmlns:xlink="http://www.w3.org/1999/xlink">
<g><path style="opacity:1" fill="#fefefe" d="M -0.5,-0.5 C 362.5,-0.5 725.5,-0.5 1088.5,-0.5C 1088.99,0.473444 1089.49,1.47344 1090,2.5C 1090.18,72.1782 1090.68,141.845 1091.5,211.5C 1091.28,497.585 1090.95,786.418 1090.5,1078C 1092.29,1082.83 1092.46,1087.66 1091,1092.5C 1089.85,1093.64 1088.69,1094.64 1087.5,1095.5C 724.833,1095.5 362.167,1095.5 -0.5,1095.5C -0.5,730.167 -0.5,364.833 -0.5,-0.5 Z"/></g>
<g><path style="opacity:1" fill="#191f2d" d="M 685.5,284.5 C 686.829,290.566 686.495,296.566 684.5,302.5C 684.657,301.127 684.49,299.793 684,298.5C 679.623,310.79 673.456,322.124 665.5,332.5C 665.709,333.086 666.043,333.586 666.5,334C 665.056,335.763 664.056,337.763 663.5,340C 664.063,347.021 666.229,353.521 670,359.5C 673.053,361.43 675.553,363.93 677.5,367C 683.833,368.558 690.166,368.724 696.5,367.5C 697.681,369.135 697.681,370.802 696.5,372.5C 693.167,376.167 689.833,379.833 686.5,383.5C 683.699,385.1 680.699,386.1 677.5,386.5C 675.153,385.474 672.82,384.474 670.5,383.5C 664.311,378.868 657.311,376.868 649.5,377.5C 648.5,377.5 647.5,377.5 646.5,377.5C 646.918,351.916 644.752,326.582 640,301.5C 637.76,296.049 635.593,290.549 633.5,285C 633.164,283.97 632.497,283.47 631.5,283.5C 625.618,273.615 617.952,265.281 608.5,258.5C 601.87,248.909 596.537,238.575 592.5,227.5C 589.687,219.865 586.854,212.198 584,204.5C 583.667,197.5 583.333,190.5 583,183.5C 581.434,178.755 578.267,176.088 573.5,175.5C 567.01,174.016 562.677,176.349 560.5,182.5C 559.776,186.365 559.109,190.365 558.5,194.5C 556.926,195.631 555.259,195.798 553.5,195C 551.297,192.628 548.963,190.461 546.5,188.5C 545.474,185.628 543.808,183.128 541.5,181C 531.781,181.24 523.114,178.407 515.5,172.5C 511.064,167.917 507.397,162.917 504.5,157.5C 502.782,158.848 501.616,161.182 501,164.5C 500.106,171.151 500.606,177.651 502.5,184C 498.984,183.851 496.484,182.017 495,178.5C 491.66,171.56 490.826,164.393 492.5,157C 491.906,156.536 491.239,156.369 490.5,156.5C 495.87,145.488 504.537,138.822 516.5,136.5C 516.369,137.239 516.536,137.906 517,138.5C 528.065,123.621 542.898,116.621 561.5,117.5C 591.368,116.844 612.201,130.177 624,157.5C 626.372,172.318 629.372,186.985 633,201.5C 635.88,211.571 639.547,221.238 644,230.5C 646.696,233.899 649.03,237.566 651,241.5C 652.667,242.833 654.333,244.167 656,245.5C 660.333,251.167 664.667,256.833 669,262.5C 670.828,264.081 672.828,265.415 675,266.5C 680.546,275.473 683.879,285.139 685,295.5C 685.499,291.848 685.665,288.182 685.5,284.5 Z"/></g>
<g><path style="opacity:1" fill="#e6b297" d="M 504.5,157.5 C 507.397,162.917 511.064,167.917 515.5,172.5C 513.938,172.267 512.605,171.6 511.5,170.5C 509.862,168.699 508.029,167.033 506,165.5C 503.922,168.87 503.089,172.537 503.5,176.5C 502.134,170.216 502.467,163.882 504.5,157.5 Z"/></g>
<g><path style="opacity:1" fill="#fbab83" d="M 511.5,170.5 C 512.231,174.281 514.231,177.281 517.5,179.5C 519.092,177.438 520.925,177.105 523,178.5C 523.627,180.586 523.127,180.919 521.5,179.5C 520.269,180.651 520.269,181.817 521.5,183C 524.521,183.849 527.521,184.683 530.5,185.5C 530.5,186.5 530.5,187.5 530.5,188.5C 525.728,187.174 520.894,186.174 516,185.5C 514.294,186.308 513.461,187.641 513.5,189.5C 513.5,190.167 513.167,190.5 512.5,190.5C 511.325,190.719 510.325,190.386 509.5,189.5C 508.439,184.607 506.439,180.273 503.5,176.5C 503.089,172.537 503.922,168.87 506,165.5C 508.029,167.033 509.862,168.699 511.5,170.5 Z"/></g>
<g><path style="opacity:1" fill="#131317" d="M 490.5,156.5 C 491.239,156.369 491.906,156.536 492.5,157C 490.826,164.393 491.66,171.56 495,178.5C 496.484,182.017 498.984,183.851 502.5,184C 500.606,177.651 500.106,171.151 501,164.5C 501.616,161.182 502.782,158.848 504.5,157.5C 502.467,163.882 502.134,170.216 503.5,176.5C 504.124,181.018 504.124,185.352 503.5,189.5C 491.92,181.438 487.587,170.438 490.5,156.5 Z"/></g>
<g><path style="opacity:1" fill="#eea985" d="M 511.5,170.5 C 512.605,171.6 513.938,172.267 515.5,172.5C 523.114,178.407 531.781,181.24 541.5,181C 543.808,183.128 545.474,185.628 546.5,188.5C 545.312,187.316 544.145,187.316 543,188.5C 543.757,183.808 541.591,181.808 536.5,182.5C 534.833,182.833 533.167,183.167 531.5,183.5C 531.833,184.5 532.5,185.167 533.5,185.5C 534.609,184.41 535.609,184.41 536.5,185.5C 535.372,186.262 534.205,186.929 533,187.5C 532.383,188.449 532.549,189.282 533.5,190C 531.888,190.72 530.388,190.554 529,189.5C 523.384,192.947 517.217,194.614 510.5,194.5C 510.517,196.565 510.85,198.565 511.5,200.5C 510.833,200.167 510.167,199.833 509.5,199.5C 509.167,198.167 508.833,196.833 508.5,195.5C 509.776,194.614 509.776,193.614 508.5,192.5C 507.893,192.624 507.56,192.957 507.5,193.5C 506.596,192.791 506.263,191.791 506.5,190.5C 505.209,190.737 504.209,190.404 503.5,189.5C 504.124,185.352 504.124,181.018 503.5,176.5C 506.439,180.273 508.439,184.607 509.5,189.5C 510.325,190.386 511.325,190.719 512.5,190.5C 512.047,191.458 511.381,192.292 510.5,193C 515.626,192.467 520.626,191.134 525.5,189C 521.446,188.306 517.446,188.473 513.5,189.5C 513.461,187.641 514.294,186.308 516,185.5C 520.894,186.174 525.728,187.174 530.5,188.5C 530.5,187.5 530.5,186.5 530.5,185.5C 527.521,184.683 524.521,183.849 521.5,183C 520.269,181.817 520.269,180.651 521.5,179.5C 523.127,180.919 523.627,180.586 523,178.5C 520.925,177.105 519.092,177.438 517.5,179.5C 514.231,177.281 512.231,174.281 511.5,170.5 Z"/></g>
<g><path style="opacity:1" fill="#181213" d="M 512.5,190.5 C 513.167,190.5 513.5,190.167 513.5,189.5C 517.446,188.473 521.446,188.306 525.5,189C 520.626,191.134 515.626,192.467 510.5,193C 511.381,192.292 512.047,191.458 512.5,190.5 Z"/></g>
<g><path style="opacity:1" fill="#422f34" d="M 508.5,195.5 C 508.167,194.833 507.833,194.167 507.5,193.5C 507.56,192.957 507.893,192.624 508.5,192.5C 509.776,193.614 509.776,194.614 508.5,195.5 Z"/></g>
<g><path style="opacity:1" fill="#171313" d="M 573.5,175.5 C 578.267,176.088 581.434,178.755 583,183.5C 583.333,190.5 583.667,197.5 584,204.5C 586.854,212.198 589.687,219.865 592.5,227.5C 588.205,219.143 584.371,210.476 581,201.5C 580.946,197.47 581.446,193.47 582.5,189.5C 582.474,182.752 579.474,178.086 573.5,175.5 Z"/></g>
<g><path style="opacity:1" fill="#f1cebf" d="M 509.5,199.5 C 510.167,199.833 510.833,200.167 511.5,200.5C 512.8,205.6 512.8,210.6 511.5,215.5C 511.998,209.911 511.332,204.578 509.5,199.5 Z"/></g>
<g><path style="opacity:1" fill="#f7a77f" d="M 575.5,267.5 C 574.205,268.488 572.872,269.488 571.5,270.5C 568.111,266.388 565.777,261.721 564.5,256.5C 565.497,256.53 566.164,256.03 566.5,255C 565.507,252.547 565.34,250.047 566,247.5C 567.929,240.379 570.263,233.379 573,226.5C 573.667,225.167 573.667,223.833 573,222.5C 569.523,231.118 564.69,238.785 558.5,245.5C 553.165,248.834 547.499,251.667 541.5,254C 538.5,254.667 535.5,254.667 532.5,254C 530.12,250.742 527.62,247.576 525,244.5C 524.51,243.207 524.343,241.873 524.5,240.5C 527.083,239.015 528.416,236.682 528.5,233.5C 524.838,233.034 521.505,233.701 518.5,235.5C 518.5,232.833 518.5,230.167 518.5,227.5C 515.223,227.784 512.057,227.451 509,226.5C 508.333,224.833 508.333,223.167 509,221.5C 510.122,219.593 510.955,217.593 511.5,215.5C 512.8,210.6 512.8,205.6 511.5,200.5C 510.85,198.565 510.517,196.565 510.5,194.5C 517.217,194.614 523.384,192.947 529,189.5C 530.388,190.554 531.888,190.72 533.5,190C 532.549,189.282 532.383,188.449 533,187.5C 534.205,186.929 535.372,186.262 536.5,185.5C 535.609,184.41 534.609,184.41 533.5,185.5C 532.5,185.167 531.833,184.5 531.5,183.5C 533.167,183.167 534.833,182.833 536.5,182.5C 541.591,181.808 543.757,183.808 543,188.5C 544.145,187.316 545.312,187.316 546.5,188.5C 548.963,190.461 551.297,192.628 553.5,195C 555.259,195.798 556.926,195.631 558.5,194.5C 559.109,190.365 559.776,186.365 560.5,182.5C 562.63,180.873 564.63,179.04 566.5,177C 570.374,176.028 573.707,176.862 576.5,179.5C 573.833,180.5 573.833,181.5 576.5,182.5C 578.518,181.187 579.685,181.853 580,184.5C 581.1,192.096 579.934,199.262 576.5,206C 579.06,210.13 579.06,214.13 576.5,218C 578.146,219.555 578.479,221.221 577.5,223C 579.221,224.437 580.721,223.937 582,221.5C 582.745,223.203 583.579,224.87 584.5,226.5C 582.613,228.282 580.78,229.949 579,231.5C 578.333,233.167 578.333,234.833 579,236.5C 579.807,238.577 580.974,240.411 582.5,242C 581.552,242.483 580.552,242.649 579.5,242.5C 579.541,238.757 578.874,238.59 577.5,242C 573.864,242.626 573.864,243.793 577.5,245.5C 576.833,248.833 576.167,252.167 575.5,255.5C 575.833,255.833 576.167,256.167 576.5,256.5C 577.5,255.833 578.5,255.167 579.5,254.5C 580.711,255.274 580.711,256.107 579.5,257C 585.189,256.553 585.689,258.053 581,261.5C 580.667,261.167 580.333,260.833 580,260.5C 579.517,261.448 579.351,262.448 579.5,263.5C 575.548,262.042 574.214,263.375 575.5,267.5 Z"/></g>
<g><path style="opacity:1" fill="#39303a" d="M 525.5,196.5 C 526.239,196.369 526.906,196.536 527.5,197C 525.877,199.08 524.377,201.246 523,203.5C 519.899,207.758 518.232,207.424 518,202.5C 520.688,200.636 523.188,198.636 525.5,196.5 Z"/></g>
<g><path style="opacity:1" fill="#f5ab85" d="M 573.5,175.5 C 579.474,178.086 582.474,182.752 582.5,189.5C 581.446,193.47 580.946,197.47 581,201.5C 584.371,210.476 588.205,219.143 592.5,227.5C 596.537,238.575 601.87,248.909 608.5,258.5C 596.311,257.628 585.311,260.628 575.5,267.5C 574.214,263.375 575.548,262.042 579.5,263.5C 579.351,262.448 579.517,261.448 580,260.5C 580.333,260.833 580.667,261.167 581,261.5C 585.689,258.053 585.189,256.553 579.5,257C 580.711,256.107 580.711,255.274 579.5,254.5C 578.5,255.167 577.5,255.833 576.5,256.5C 576.167,256.167 575.833,255.833 575.5,255.5C 576.167,252.167 576.833,248.833 577.5,245.5C 573.864,243.793 573.864,242.626 577.5,242C 578.874,238.59 579.541,238.757 579.5,242.5C 580.552,242.649 581.552,242.483 582.5,242C 580.974,240.411 579.807,238.577 579,236.5C 578.333,234.833 578.333,233.167 579,231.5C 580.78,229.949 582.613,228.282 584.5,226.5C 583.579,224.87 582.745,223.203 582,221.5C 580.721,223.937 579.221,224.437 577.5,223C 578.479,221.221 578.146,219.555 576.5,218C 579.06,214.13 579.06,210.13 576.5,206C 579.934,199.262 581.1,192.096 580,184.5C 579.685,181.853 578.518,181.187 576.5,182.5C 573.833,181.5 573.833,180.5 576.5,179.5C 573.707,176.862 570.374,176.028 566.5,177C 564.63,179.04 562.63,180.873 560.5,182.5C 562.677,176.349 567.01,174.016 573.5,175.5 Z"/></g>
<g><path style="opacity:1" fill="#de3018" d="M 524.5,240.5 C 523.048,239.698 521.382,239.198 519.5,239C 518.663,237.989 518.33,236.822 518.5,235.5C 521.505,233.701 524.838,233.034 528.5,233.5C 528.416,236.682 527.083,239.015 524.5,240.5 Z"/></g>
<g><path style="opacity:1" fill="#e38b6b" d="M 564.5,256.5 C 563.242,252.358 561.242,248.692 558.5,245.5C 564.69,238.785 569.523,231.118 573,222.5C 573.667,223.833 573.667,225.167 573,226.5C 570.263,233.379 567.929,240.379 566,247.5C 565.34,250.047 565.507,252.547 566.5,255C 566.164,256.03 565.497,256.53 564.5,256.5 Z"/></g>
<g><path style="opacity:1" fill="#13141c" d="M 685.5,284.5 C 685.665,288.182 685.499,291.848 685,295.5C 683.879,285.139 680.546,275.473 675,266.5C 672.828,265.415 670.828,264.081 669,262.5C 664.667,256.833 660.333,251.167 656,245.5C 654.333,244.167 652.667,242.833 651,241.5C 649.03,237.566 646.696,233.899 644,230.5C 639.547,221.238 635.88,211.571 633,201.5C 629.372,186.985 626.372,172.318 624,157.5C 612.201,130.177 591.368,116.844 561.5,117.5C 542.898,116.621 528.065,123.621 517,138.5C 516.536,137.906 516.369,137.239 516.5,136.5C 525.239,123.955 537.239,116.455 552.5,114C 579.375,110.728 601.208,119.562 618,140.5C 620.861,144.888 623.194,149.554 625,154.5C 629.866,172.024 634.199,189.691 638,207.5C 642.059,221.621 648.726,234.288 658,245.5C 664.387,251.887 670.721,258.221 677,264.5C 681.766,270.363 684.599,277.029 685.5,284.5 Z"/></g>
<g><path style="opacity:1" fill="#0fa39a" d="M 608.5,258.5 C 617.952,265.281 625.618,273.615 631.5,283.5C 637.505,297.189 640.839,311.522 641.5,326.5C 639.933,318.237 638.1,309.904 636,301.5C 634.812,302.563 634.312,303.897 634.5,305.5C 633.5,305.5 632.5,305.5 631.5,305.5C 631.85,308.872 632.184,312.039 632.5,315C 631.045,320.751 629.712,326.584 628.5,332.5C 629.077,336.102 629.077,339.768 628.5,343.5C 628.167,343.5 627.833,343.5 627.5,343.5C 627.946,340.99 627.28,338.99 625.5,337.5C 629.931,321.329 629.431,305.329 624,289.5C 613.766,269.304 598.6,264.471 578.5,275C 569.235,282.6 562.735,292.1 559,303.5C 548.657,335.86 538.324,368.193 528,400.5C 524.02,412.631 519.186,424.298 513.5,435.5C 513.565,435.062 513.399,434.728 513,434.5C 512.411,436.863 510.911,437.863 508.5,437.5C 509.47,412.844 510.304,388.178 511,363.5C 512.895,352.712 517.229,343.045 524,334.5C 540.846,313.835 556.679,292.501 571.5,270.5C 572.872,269.488 574.205,268.488 575.5,267.5C 585.311,260.628 596.311,257.628 608.5,258.5 Z"/></g>
<g><path style="opacity:1" fill="#15171e" d="M 684.5,302.5 C 683.978,305.568 683.145,308.568 682,311.5C 677.399,319.036 673.066,326.703 669,334.5C 666.005,348.332 670.505,358.832 682.5,366C 688.315,366.789 693.981,366.289 699.5,364.5C 698.025,378.311 690.358,386.311 676.5,388.5C 673.891,387.557 671.891,385.89 670.5,383.5C 672.82,384.474 675.153,385.474 677.5,386.5C 680.699,386.1 683.699,385.1 686.5,383.5C 689.833,379.833 693.167,376.167 696.5,372.5C 697.681,370.802 697.681,369.135 696.5,367.5C 690.166,368.724 683.833,368.558 677.5,367C 675.553,363.93 673.053,361.43 670,359.5C 666.229,353.521 664.063,347.021 663.5,340C 664.056,337.763 665.056,335.763 666.5,334C 666.043,333.586 665.709,333.086 665.5,332.5C 673.456,322.124 679.623,310.79 684,298.5C 684.49,299.793 684.657,301.127 684.5,302.5 Z"/></g>
<g><path style="opacity:1" fill="#03a7a1" d="M 521.5,548.5 C 520.167,531.5 520.167,514.5 521.5,497.5C 521.334,505.507 521.5,513.507 522,521.5C 533.042,509.295 543.875,496.962 554.5,484.5C 561.463,476.598 567.963,468.265 574,459.5C 590.931,429.639 606.264,398.972 620,367.5C 622.809,359.573 625.309,351.573 627.5,343.5C 627.833,343.5 628.167,343.5 628.5,343.5C 630.086,342.587 631.586,342.587 633,343.5C 633.333,342.5 633.667,341.5 634,340.5C 634.784,343.76 634.617,346.927 633.5,350C 631.866,350.494 630.199,350.66 628.5,350.5C 628.351,351.552 628.517,352.552 629,353.5C 630.073,352.72 631.24,352.887 632.5,354C 631.167,354.667 631.167,355.333 632.5,356C 631.5,356.333 630.5,356.667 629.5,357C 630.672,357.419 631.672,358.085 632.5,359C 629.727,360.888 629.394,362.888 631.5,365C 629.398,366.733 629.065,368.733 630.5,371C 627.743,372.819 626.743,375.152 627.5,378C 626.531,379.758 625.364,380.258 624,379.5C 623.626,380.416 623.126,381.25 622.5,382C 623.742,385.357 624.576,385.19 625,381.5C 625.87,382.108 626.37,382.941 626.5,384C 624.424,385.244 623.424,387.077 623.5,389.5C 624.552,389.351 625.552,389.517 626.5,390C 625.949,391.398 625.616,392.732 625.5,394C 626.494,395.329 627.494,396.662 628.5,398C 628.355,398.772 628.022,399.439 627.5,400C 628.573,401.313 629.24,402.813 629.5,404.5C 627.243,408.739 625.91,413.239 625.5,418C 626.833,419.333 626.833,420.667 625.5,422C 626.308,422.308 626.975,422.808 627.5,423.5C 626.253,425.042 626.253,426.542 627.5,428C 626.833,429 626.167,430 625.5,431C 626.337,432.011 626.67,433.178 626.5,434.5C 624.641,434.461 623.308,435.294 622.5,437C 624.991,437.626 624.991,438.459 622.5,439.5C 623.833,440.5 623.833,441.5 622.5,442.5C 625.192,445.692 627.692,449.025 630,452.5C 630.536,454.567 630.036,456.401 628.5,458C 631.289,461.383 632.623,465.049 632.5,469C 632.895,472.267 633.895,475.267 635.5,478C 633.041,478.724 632.041,480.057 632.5,482C 631.397,485.315 629.564,488.149 627,490.5C 626.667,490.167 626.333,489.833 626,489.5C 623.99,493.32 625.157,495.82 629.5,497C 626.536,497.84 626.203,498.84 628.5,500C 628.043,500.414 627.709,500.914 627.5,501.5C 628.5,502.833 629.5,502.833 630.5,501.5C 629.145,500.325 629.312,499.325 631,498.5C 631.199,500.402 632.033,501.902 633.5,503C 632.911,504.889 632.577,506.889 632.5,509C 634.333,509.5 635.5,510.667 636,512.5C 636.333,512.167 636.667,511.833 637,511.5C 639.071,514.416 640.405,514.082 641,510.5C 642.833,511.667 644.333,513.167 645.5,515C 642.563,514.989 639.73,515.155 637,515.5C 636.396,513.314 635.23,513.148 633.5,515C 634.833,516.333 634.833,517.667 633.5,519C 630.425,520.833 626.425,522 621.5,522.5C 619.291,523.063 617.791,524.396 617,526.5C 616.667,526.167 616.333,525.833 616,525.5C 611.638,529.593 607.305,530.259 603,527.5C 602.612,528.428 601.945,529.095 601,529.5C 600.454,528.711 599.787,527.711 599,526.5C 596.544,527.15 594.21,528.15 592,529.5C 590.278,529.389 590.112,528.889 591.5,528C 589.094,527.694 586.927,526.861 585,525.5C 583.765,526.615 582.598,526.615 581.5,525.5C 580.808,526.025 580.308,526.692 580,527.5C 579.667,527.167 579.333,526.833 579,526.5C 578.517,527.448 578.351,528.448 578.5,529.5C 574.232,527.889 570.065,526.889 566,526.5C 560.364,529.15 554.697,531.817 549,534.5C 548.586,534.043 548.086,533.709 547.5,533.5C 543.159,534.755 538.993,536.421 535,538.5C 533.284,537.448 532.284,538.114 532,540.5C 530.844,539.007 530.01,539.174 529.5,541C 530.098,542.301 531.098,543.135 532.5,543.5C 535.473,542.307 535.973,542.973 534,545.5C 532.951,544.483 531.784,544.316 530.5,545C 531.167,546.333 532.167,547.333 533.5,548C 529.514,548.499 525.514,548.666 521.5,548.5 Z"/></g>
<g><path style="opacity:1" fill="#12161c" d="M 631.5,283.5 C 632.497,283.47 633.164,283.97 633.5,285C 635.593,290.549 637.76,296.049 640,301.5C 644.752,326.582 646.918,351.916 646.5,377.5C 647.5,377.5 648.5,377.5 649.5,377.5C 647.751,379.256 645.751,380.589 643.5,381.5C 642.704,363.327 642.037,344.994 641.5,326.5C 640.839,311.522 637.505,297.189 631.5,283.5 Z"/></g>
<g><path style="opacity:1" fill="#f2980a" d="M 649.5,377.5 C 657.311,376.868 664.311,378.868 670.5,383.5C 671.891,385.89 673.891,387.557 676.5,388.5C 682.876,402.292 687.876,416.625 691.5,431.5C 692.057,436.165 693.39,440.498 695.5,444.5C 698.28,451.186 700.28,458.186 701.5,465.5C 702.307,471.464 702.64,477.464 702.5,483.5C 701.944,487.23 700.278,490.397 697.5,493C 691.633,496.678 685.299,498.844 678.5,499.5C 678.918,498.778 679.584,498.278 680.5,498C 678.729,497.465 678.396,496.631 679.5,495.5C 681.655,495.838 683.989,495.838 686.5,495.5C 686.351,494.448 686.517,493.448 687,492.5C 687.333,492.833 687.667,493.167 688,493.5C 692.814,487.474 693.814,480.808 691,473.5C 687.919,460.895 682.919,449.228 676,438.5C 674.901,441.039 673.234,441.705 671,440.5C 670.259,437.888 671.259,436.222 674,435.5C 674.333,435.833 674.667,436.167 675,436.5C 675.991,435.57 676.491,434.404 676.5,433C 674.084,423.605 670.917,414.438 667,405.5C 664.164,401.337 660.331,399.171 655.5,399C 652.938,402.065 649.938,404.565 646.5,406.5C 645.832,404.031 645.165,401.698 644.5,399.5C 644.034,393.509 643.701,387.509 643.5,381.5C 645.751,380.589 647.751,379.256 649.5,377.5 Z"/></g>
<g><path style="opacity:1" fill="#0daaa2" d="M 641.5,326.5 C 642.037,344.994 642.704,363.327 643.5,381.5C 643.701,387.509 644.034,393.509 644.5,399.5C 644.759,410.836 645.093,422.169 645.5,433.5C 645.118,441.736 645.785,449.736 647.5,457.5C 648.913,464.232 650.58,470.899 652.5,477.5C 652.41,480.152 653.076,482.485 654.5,484.5C 657.224,490.338 659.557,496.338 661.5,502.5C 664.032,511.964 664.865,521.63 664,531.5C 663.578,533.426 662.411,534.426 660.5,534.5C 660.083,533.876 659.416,533.543 658.5,533.5C 617.096,540.891 575.429,546.224 533.5,549.5C 529.298,549.817 525.298,549.483 521.5,548.5C 525.514,548.666 529.514,548.499 533.5,548C 532.167,547.333 531.167,546.333 530.5,545C 531.784,544.316 532.951,544.483 534,545.5C 535.973,542.973 535.473,542.307 532.5,543.5C 531.098,543.135 530.098,542.301 529.5,541C 530.01,539.174 530.844,539.007 532,540.5C 532.284,538.114 533.284,537.448 535,538.5C 538.993,536.421 543.159,534.755 547.5,533.5C 548.086,533.709 548.586,534.043 549,534.5C 554.697,531.817 560.364,529.15 566,526.5C 570.065,526.889 574.232,527.889 578.5,529.5C 578.351,528.448 578.517,527.448 579,526.5C 579.333,526.833 579.667,527.167 580,527.5C 580.308,526.692 580.808,526.025 581.5,525.5C 582.598,526.615 583.765,526.615 585,525.5C 586.927,526.861 589.094,527.694 591.5,528C 590.112,528.889 590.278,529.389 592,529.5C 594.21,528.15 596.544,527.15 599,526.5C 599.787,527.711 600.454,528.711 601,529.5C 601.945,529.095 602.612,528.428 603,527.5C 607.305,530.259 611.638,529.593 616,525.5C 616.333,525.833 616.667,526.167 617,526.5C 617.791,524.396 619.291,523.063 621.5,522.5C 626.425,522 630.425,520.833 633.5,519C 634.833,517.667 634.833,516.333 633.5,515C 635.23,513.148 636.396,513.314 637,515.5C 639.73,515.155 642.563,514.989 645.5,515C 644.333,513.167 642.833,511.667 641,510.5C 640.405,514.082 639.071,514.416 637,511.5C 636.667,511.833 636.333,512.167 636,512.5C 635.5,510.667 634.333,509.5 632.5,509C 632.577,506.889 632.911,504.889 633.5,503C 632.033,501.902 631.199,500.402 631,498.5C 629.312,499.325 629.145,500.325 630.5,501.5C 629.5,502.833 628.5,502.833 627.5,501.5C 627.709,500.914 628.043,500.414 628.5,500C 626.203,498.84 626.536,497.84 629.5,497C 625.157,495.82 623.99,493.32 626,489.5C 626.333,489.833 626.667,490.167 627,490.5C 629.564,488.149 631.397,485.315 632.5,482C 632.041,480.057 633.041,478.724 635.5,478C 633.895,475.267 632.895,472.267 632.5,469C 632.623,465.049 631.289,461.383 628.5,458C 630.036,456.401 630.536,454.567 630,452.5C 627.692,449.025 625.192,445.692 622.5,442.5C 623.833,441.5 623.833,440.5 622.5,439.5C 624.991,438.459 624.991,437.626 622.5,437C 623.308,435.294 624.641,434.461 626.5,434.5C 626.67,433.178 626.337,432.011 625.5,431C 626.167,430 626.833,429 627.5,428C 626.253,426.542 626.253,425.042 627.5,423.5C 626.975,422.808 626.308,422.308 625.5,422C 626.833,420.667 626.833,419.333 625.5,418C 625.91,413.239 627.243,408.739 629.5,404.5C 629.24,402.813 628.573,401.313 627.5,400C 628.022,399.439 628.355,398.772 628.5,398C 627.494,396.662 626.494,395.329 625.5,394C 625.616,392.732 625.949,391.398 626.5,390C 625.552,389.517 624.552,389.351 623.5,389.5C 623.424,387.077 624.424,385.244 626.5,384C 626.37,382.941 625.87,382.108 625,381.5C 624.576,385.19 623.742,385.357 622.5,382C 623.126,381.25 623.626,380.416 624,379.5C 625.364,380.258 626.531,379.758 627.5,378C 626.743,375.152 627.743,372.819 630.5,371C 629.065,368.733 629.398,366.733 631.5,365C 629.394,362.888 629.727,360.888 632.5,359C 631.672,358.085 630.672,357.419 629.5,357C 630.5,356.667 631.5,356.333 632.5,356C 631.167,355.333 631.167,354.667 632.5,354C 631.24,352.887 630.073,352.72 629,353.5C 628.517,352.552 628.351,351.552 628.5,350.5C 630.199,350.66 631.866,350.494 633.5,350C 634.617,346.927 634.784,343.76 634,340.5C 633.667,341.5 633.333,342.5 633,343.5C 631.586,342.587 630.086,342.587 628.5,343.5C 629.077,339.768 629.077,336.102 628.5,332.5C 629.712,326.584 631.045,320.751 632.5,315C 632.184,312.039 631.85,308.872 631.5,305.5C 632.5,305.5 633.5,305.5 634.5,305.5C 634.312,303.897 634.812,302.563 636,301.5C 638.1,309.904 639.933,318.237 641.5,326.5 Z"/></g>
<g><path style="opacity:1" fill="#101219" d="M 302.5,393.5 C 303.413,400.076 305.247,406.409 308,412.5C 323.836,451.858 339.669,491.191 355.5,530.5C 356.341,532.379 356.675,534.379 356.5,536.5C 355.749,537.573 354.749,537.74 353.5,537C 351.273,534.436 349.439,531.603 348,528.5C 331.254,485.26 313.92,442.26 296,399.5C 293.903,392.083 296.07,390.083 302.5,393.5 Z"/></g>
<g><path style="opacity:1" fill="#181f2d" d="M 307.5,404.5 C 315.849,406.008 323.182,409.674 329.5,415.5C 343.069,452.553 357.402,489.22 372.5,525.5C 365.71,527.194 359.71,526.527 354.5,523.5C 339.127,483.749 323.46,444.082 307.5,404.5 Z"/></g>
<g><path style="opacity:1" fill="#d4d5d6" d="M 302.5,393.5 C 303.492,393.328 304.158,393.662 304.5,394.5C 305.101,397.968 306.101,401.301 307.5,404.5C 323.46,444.082 339.127,483.749 354.5,523.5C 354.796,525.403 355.463,527.07 356.5,528.5C 356.672,529.492 356.338,530.158 355.5,530.5C 339.669,491.191 323.836,451.858 308,412.5C 305.247,406.409 303.413,400.076 302.5,393.5 Z"/></g>
<g><path style="opacity:1" fill="#e4a74e" d="M 691.5,431.5 C 693.61,435.502 694.943,439.835 695.5,444.5C 693.39,440.498 692.057,436.165 691.5,431.5 Z"/></g>
<g><path style="opacity:1" fill="#068179" d="M 625.5,337.5 C 627.28,338.99 627.946,340.99 627.5,343.5C 625.309,351.573 622.809,359.573 620,367.5C 606.264,398.972 590.931,429.639 574,459.5C 567.963,468.265 561.463,476.598 554.5,484.5C 553.737,483.732 552.737,483.232 551.5,483C 552.701,482.097 553.535,480.931 554,479.5C 554.333,479.833 554.667,480.167 555,480.5C 555.455,477.219 556.289,474.052 557.5,471C 557.355,469.774 557.022,468.607 556.5,467.5C 560.529,462.403 564.196,457.07 567.5,451.5C 567.376,450.893 567.043,450.56 566.5,450.5C 586.409,413.018 606.076,375.351 625.5,337.5 Z"/></g>
<g><path style="opacity:1" fill="#f7a20e" d="M 678.5,499.5 C 673.11,501.375 667.444,502.375 661.5,502.5C 659.557,496.338 657.224,490.338 654.5,484.5C 654.59,481.848 653.924,479.515 652.5,477.5C 650.58,470.899 648.913,464.232 647.5,457.5C 647.159,449.325 646.492,441.325 645.5,433.5C 645.093,422.169 644.759,410.836 644.5,399.5C 645.165,401.698 645.832,404.031 646.5,406.5C 649.938,404.565 652.938,402.065 655.5,399C 660.331,399.171 664.164,401.337 667,405.5C 670.917,414.438 674.084,423.605 676.5,433C 676.491,434.404 675.991,435.57 675,436.5C 674.667,436.167 674.333,435.833 674,435.5C 671.259,436.222 670.259,437.888 671,440.5C 673.234,441.705 674.901,441.039 676,438.5C 682.919,449.228 687.919,460.895 691,473.5C 693.814,480.808 692.814,487.474 688,493.5C 687.667,493.167 687.333,492.833 687,492.5C 686.517,493.448 686.351,494.448 686.5,495.5C 683.989,495.838 681.655,495.838 679.5,495.5C 678.396,496.631 678.729,497.465 680.5,498C 679.584,498.278 678.918,498.778 678.5,499.5 Z"/></g>
<g><path style="opacity:1" fill="#1d9189" d="M 513.5,435.5 C 512.62,438.262 511.454,440.929 510,443.5C 504.333,451.167 498.667,458.833 493,466.5C 481.606,478.39 470.44,490.39 459.5,502.5C 456.357,504.242 453.357,506.242 450.5,508.5C 449.478,508.145 448.811,507.478 448.5,506.5C 448.34,504.801 448.506,503.134 449,501.5C 469.773,480.899 489.607,459.565 508.5,437.5C 510.911,437.863 512.411,436.863 513,434.5C 513.399,434.728 513.565,435.062 513.5,435.5 Z"/></g>
<g><path style="opacity:1" fill="#80a863" d="M 645.5,433.5 C 646.492,441.325 647.159,449.325 647.5,457.5C 645.785,449.736 645.118,441.736 645.5,433.5 Z"/></g>
<g><path style="opacity:1" fill="#181821" d="M 418.5,481.5 C 418.41,484.152 419.076,486.485 420.5,488.5C 420.216,490.415 420.549,492.081 421.5,493.5C 421.46,496.881 421.793,500.214 422.5,503.5C 421.325,503.719 420.325,503.386 419.5,502.5C 418.304,498.668 416.97,495.001 415.5,491.5C 411.069,480.966 406.903,470.299 403,459.5C 402.333,456.5 402.333,453.5 403,450.5C 404.631,453.149 406.965,454.816 410,455.5C 413.34,464.019 416.173,472.685 418.5,481.5 Z"/></g>
<g><path style="opacity:1" fill="#13151c" d="M 304.5,394.5 C 313.724,400.365 322.89,406.365 332,412.5C 346.538,451.281 361.371,489.948 376.5,528.5C 370.167,528.5 363.833,528.5 357.5,528.5C 357.167,528.5 356.833,528.5 356.5,528.5C 355.463,527.07 354.796,525.403 354.5,523.5C 359.71,526.527 365.71,527.194 372.5,525.5C 357.402,489.22 343.069,452.553 329.5,415.5C 323.182,409.674 315.849,406.008 307.5,404.5C 306.101,401.301 305.101,397.968 304.5,394.5 Z"/></g>
<g><path style="opacity:1" fill="#e8ad50" d="M 701.5,465.5 C 703.03,468.695 703.696,472.195 703.5,476C 703.497,478.69 703.164,481.19 702.5,483.5C 702.64,477.464 702.307,471.464 701.5,465.5 Z"/></g>
<g><path style="opacity:1" fill="#80af6e" d="M 652.5,477.5 C 653.924,479.515 654.59,481.848 654.5,484.5C 653.076,482.485 652.41,480.152 652.5,477.5 Z"/></g>
<g><path style="opacity:1" fill="#48484d" d="M 418.5,481.5 C 419.924,483.515 420.59,485.848 420.5,488.5C 419.076,486.485 418.41,484.152 418.5,481.5 Z"/></g>
<g><path style="opacity:1" fill="#066f6c" d="M 566.5,450.5 C 567.043,450.56 567.376,450.893 567.5,451.5C 564.196,457.07 560.529,462.403 556.5,467.5C 557.022,468.607 557.355,469.774 557.5,471C 556.289,474.052 555.455,477.219 555,480.5C 554.667,480.167 554.333,479.833 554,479.5C 553.535,480.931 552.701,482.097 551.5,483C 552.737,483.232 553.737,483.732 554.5,484.5C 543.875,496.962 533.042,509.295 522,521.5C 521.5,513.507 521.334,505.507 521.5,497.5C 538.914,484.088 553.914,468.421 566.5,450.5 Z"/></g>
<g><path style="opacity:1" fill="#f3a280" d="M 415.5,491.5 C 416.97,495.001 418.304,498.668 419.5,502.5C 420.325,503.386 421.325,503.719 422.5,503.5C 421.793,500.214 421.46,496.881 421.5,493.5C 432.465,493.818 441.465,498.152 448.5,506.5C 448.811,507.478 449.478,508.145 450.5,508.5C 453.357,506.242 456.357,504.242 459.5,502.5C 464.801,507.971 469.967,513.638 475,519.5C 475.617,520.449 475.451,521.282 474.5,522C 469.833,524 465.167,526 460.5,528C 444.354,528.447 428.354,528.614 412.5,528.5C 412.762,527.022 412.429,525.689 411.5,524.5C 410.148,525.524 408.815,526.524 407.5,527.5C 406.469,526.751 405.302,526.085 404,525.5C 402.458,519.662 400.458,513.995 398,508.5C 397.333,506.833 397.333,505.167 398,503.5C 403.264,498.315 409.098,494.315 415.5,491.5 Z"/></g>
<g><path style="opacity:1" fill="#140f0c" d="M 412.5,528.5 C 410.585,528.784 408.919,528.451 407.5,527.5C 408.815,526.524 410.148,525.524 411.5,524.5C 412.429,525.689 412.762,527.022 412.5,528.5 Z"/></g>
<g><path style="opacity:1" fill="#66696d" d="M 356.5,528.5 C 356.833,528.5 357.167,528.5 357.5,528.5C 357.806,531.385 357.473,534.052 356.5,536.5C 356.675,534.379 356.341,532.379 355.5,530.5C 356.338,530.158 356.672,529.492 356.5,528.5 Z"/></g>
<g><path style="opacity:1" fill="#868c93" d="M 365.5,533.5 C 368.024,532.2 370.691,532.2 373.5,533.5C 373.376,534.107 373.043,534.44 372.5,534.5C 370.525,534.158 368.192,533.825 365.5,533.5 Z"/></g>
<g><path style="opacity:1" fill="#414247" d="M 456.5,533.5 C 430.328,533.169 404.328,533.502 378.5,534.5C 377.957,534.44 377.624,534.107 377.5,533.5C 403.997,532.171 430.33,532.171 456.5,533.5 Z"/></g>
<g><path style="opacity:1" fill="#030405" d="M 456.5,533.5 C 456.5,534.5 456.5,535.5 456.5,536.5C 430.833,536.5 405.167,536.5 379.5,536.5C 379.167,535.833 378.833,535.167 378.5,534.5C 404.328,533.502 430.328,533.169 456.5,533.5 Z"/></g>
<g><path style="opacity:1" fill="#1c1f26" d="M 365.5,533.5 C 368.192,533.825 370.525,534.158 372.5,534.5C 371.852,536.586 370.352,537.586 368,537.5C 364.803,537.337 363.969,536.004 365.5,533.5 Z"/></g>
<g><path style="opacity:1" fill="#bcbdbd" d="M 456.5,533.5 C 457.391,534.261 458.058,535.261 458.5,536.5C 432.003,537.829 405.67,537.829 379.5,536.5C 405.167,536.5 430.833,536.5 456.5,536.5C 456.5,535.5 456.5,534.5 456.5,533.5 Z"/></g>
<g><path style="opacity:1" fill="#1b212e" d="M 666.5,592.5 C 672.953,613.542 678.62,634.875 683.5,656.5C 682.732,655.737 682.232,654.737 682,653.5C 681.186,655.282 680.019,656.782 678.5,658C 680.481,658.605 680.815,659.605 679.5,661C 680.308,661.308 680.975,661.808 681.5,662.5C 687.208,676.31 693.708,689.644 701,702.5C 702.984,710.107 706.318,717.107 711,723.5C 711.72,725.112 711.554,726.612 710.5,728C 713.196,731.215 715.529,734.715 717.5,738.5C 719.846,746.04 722.679,753.374 726,760.5C 731.077,774.225 733.91,788.058 734.5,802C 736.825,803.452 736.825,805.119 734.5,807C 735.167,808.333 736.167,809.333 737.5,810C 736.542,811.147 736.875,812.147 738.5,813C 736.193,814.828 736.526,816.494 739.5,818C 739.461,820.297 739.128,822.63 738.5,825C 739.376,826.586 740.376,828.086 741.5,829.5C 742.425,828.359 743.259,828.359 744,829.5C 745.441,833.86 746.775,838.193 748,842.5C 748.49,841.207 748.657,839.873 748.5,838.5C 750.405,842.897 751.739,847.563 752.5,852.5C 738.777,858.191 725.11,864.191 711.5,870.5C 693.132,833.649 674.632,796.649 656,759.5C 652.603,757.442 650.937,754.442 651,750.5C 646.331,741.821 641.665,733.155 637,724.5C 628.787,702.134 619.287,681.134 608.5,661.5C 607.849,660.909 607.182,660.243 606.5,659.5C 600.839,674.65 595.672,689.983 591,705.5C 590.7,711.504 590.866,717.504 591.5,723.5C 590.838,725.304 590.505,727.304 590.5,729.5C 593.994,755.386 595.161,781.386 594,807.5C 589.579,836.149 585.745,863.482 582.5,889.5C 568.5,889.5 554.5,889.5 540.5,889.5C 541.017,880.349 540.183,871.349 538,862.5C 537.505,864.473 537.338,866.473 537.5,868.5C 536.523,865.713 536.19,862.713 536.5,859.5C 537.166,855.18 537.499,850.68 537.5,846C 536.416,804.656 533.25,763.489 528,722.5C 527.175,714.734 525.841,707.067 524,699.5C 524.035,687.168 524.035,674.834 524,662.5C 523.817,665.365 523.317,668.031 522.5,670.5C 522.376,664.931 523.043,659.598 524.5,654.5C 524.338,656.527 524.505,658.527 525,660.5C 525.333,659.833 525.667,659.167 526,658.5C 529.988,622.962 533.822,587.462 537.5,552C 577.803,548.738 617.803,543.571 657.5,536.5C 656.24,541.948 654.573,547.281 652.5,552.5C 653.833,558.332 655.666,563.999 658,569.5C 658.333,573.167 658.667,576.833 659,580.5C 661.504,586.386 663.504,592.386 665,598.5C 665.813,596.564 666.313,594.564 666.5,592.5 Z"/></g>
<g><path style="opacity:1" fill="#272a30" d="M 500.5,541.5 C 431.001,542.753 361.335,543.753 291.5,544.5C 290.243,546.679 288.743,548.679 287,550.5C 286.51,549.207 286.343,547.873 286.5,546.5C 287.254,543.909 288.921,542.076 291.5,541C 361.237,540.17 430.904,540.337 500.5,541.5 Z"/></g>
<g><path style="opacity:1" fill="#070b14" d="M 503.5,557.5 C 502.292,558.234 500.959,558.567 499.5,558.5C 456.832,558.667 414.165,558.5 371.5,558C 415.208,557.828 458.875,557.328 502.5,556.5C 503.107,556.624 503.44,556.957 503.5,557.5 Z"/></g>
<g><path style="opacity:1" fill="#141922" d="M 660.5,534.5 C 658.308,540.41 656.308,546.41 654.5,552.5C 659.109,565.66 663.109,578.993 666.5,592.5C 666.313,594.564 665.813,596.564 665,598.5C 663.504,592.386 661.504,586.386 659,580.5C 658.667,576.833 658.333,573.167 658,569.5C 655.666,563.999 653.833,558.332 652.5,552.5C 654.573,547.281 656.24,541.948 657.5,536.5C 617.803,543.571 577.803,548.738 537.5,552C 533.822,587.462 529.988,622.962 526,658.5C 525.667,659.167 525.333,659.833 525,660.5C 524.505,658.527 524.338,656.527 524.5,654.5C 526.775,619.421 529.775,584.421 533.5,549.5C 575.429,546.224 617.096,540.891 658.5,533.5C 659.416,533.543 660.083,533.876 660.5,534.5 Z"/></g>
<g><path style="opacity:1" fill="#f8f4fa" d="M 1088.5,-0.5 C 1090.83,-0.5 1093.17,-0.5 1095.5,-0.5C 1095.5,364.833 1095.5,730.167 1095.5,1095.5C 1092.83,1095.5 1090.17,1095.5 1087.5,1095.5C 1088.69,1094.64 1089.85,1093.64 1091,1092.5C 1092.46,1087.66 1092.29,1082.83 1090.5,1078C 1090.95,786.418 1091.28,497.585 1091.5,211.5C 1090.68,141.845 1090.18,72.1782 1090,2.5C 1089.49,1.47344 1088.99,0.473444 1088.5,-0.5 Z"/></g>
<g><path style="opacity:1" fill="#171a23" d="M 353.5,711.5 C 353.5,660.833 353.5,610.167 353.5,559.5C 332.993,559.83 312.66,559.497 292.5,558.5C 312.663,557.337 332.996,557.171 353.5,558C 354.5,559 355.5,560 356.5,561C 355.753,612.281 355.253,663.781 355,715.5C 354.79,713.942 354.29,712.609 353.5,711.5 Z"/></g>
<g><path style="opacity:1" fill="#181924" d="M 683.5,656.5 C 693.637,683.454 705.471,709.787 719,735.5C 722.943,744.386 726.61,753.386 730,762.5C 736.867,787.671 743.034,813.004 748.5,838.5C 748.657,839.873 748.49,841.207 748,842.5C 746.775,838.193 745.441,833.86 744,829.5C 743.259,828.359 742.425,828.359 741.5,829.5C 740.376,828.086 739.376,826.586 738.5,825C 739.128,822.63 739.461,820.297 739.5,818C 736.526,816.494 736.193,814.828 738.5,813C 736.875,812.147 736.542,811.147 737.5,810C 736.167,809.333 735.167,808.333 734.5,807C 736.825,805.119 736.825,803.452 734.5,802C 733.91,788.058 731.077,774.225 726,760.5C 722.679,753.374 719.846,746.04 717.5,738.5C 715.529,734.715 713.196,731.215 710.5,728C 711.554,726.612 711.72,725.112 711,723.5C 706.318,717.107 702.984,710.107 701,702.5C 693.708,689.644 687.208,676.31 681.5,662.5C 680.975,661.808 680.308,661.308 679.5,661C 680.815,659.605 680.481,658.605 678.5,658C 680.019,656.782 681.186,655.282 682,653.5C 682.232,654.737 682.732,655.737 683.5,656.5 Z"/></g>
<g><path style="opacity:1" fill="#1e2330" d="M 500.5,541.5 C 508.448,545.571 509.448,550.905 503.5,557.5C 503.44,556.957 503.107,556.624 502.5,556.5C 458.875,557.328 415.208,557.828 371.5,558C 414.165,558.5 456.832,558.667 499.5,558.5C 456.833,559.167 414.167,559.833 371.5,560.5C 370.857,611.341 370.024,662.341 369,713.5C 366.872,713.073 364.705,713.573 362.5,715C 365.401,716.314 368.401,717.48 371.5,718.5C 370.86,723.032 370.194,727.532 369.5,732C 370.469,814.435 370.802,896.935 370.5,979.5C 365.238,979.805 360.072,979.471 355,978.5C 354.93,892.509 354.596,806.509 354,720.5C 353.768,719.263 353.268,718.263 352.5,717.5C 353.341,715.621 353.675,713.621 353.5,711.5C 354.29,712.609 354.79,713.942 355,715.5C 355.253,663.781 355.753,612.281 356.5,561C 355.5,560 354.5,559 353.5,558C 332.996,557.171 312.663,557.337 292.5,558.5C 286.851,556.179 284.851,552.179 286.5,546.5C 286.343,547.873 286.51,549.207 287,550.5C 288.743,548.679 290.243,546.679 291.5,544.5C 361.335,543.753 431.001,542.753 500.5,541.5 Z"/></g>
<g><path style="opacity:1" fill="#1c1f26" d="M 371.5,560.5 C 370.845,613.05 371.511,665.383 373.5,717.5C 373.833,805.668 373.499,893.668 372.5,981.5C 372.667,901.499 372.5,821.499 372,741.5C 371.833,821.001 371.333,900.334 370.5,979.5C 370.802,896.935 370.469,814.435 369.5,732C 370.194,727.532 370.86,723.032 371.5,718.5C 368.401,717.48 365.401,716.314 362.5,715C 364.705,713.573 366.872,713.073 369,713.5C 370.024,662.341 370.857,611.341 371.5,560.5 Z"/></g>
<g><path style="opacity:1" fill="#9e9fa1" d="M 524.5,720.5 C 525.889,725.269 526.556,730.269 526.5,735.5C 525.111,730.731 524.444,725.731 524.5,720.5 Z"/></g>
<g><path style="opacity:1" fill="#4b4a52" d="M 594.5,747.5 C 596.031,752.25 596.698,757.25 596.5,762.5C 595.111,757.731 594.444,752.731 594.5,747.5 Z"/></g>
<g><path style="opacity:1" fill="#12141b" d="M 536.5,859.5 C 533.261,818.153 529.928,776.82 526.5,735.5C 526.556,730.269 525.889,725.269 524.5,720.5C 521.503,703.927 520.837,687.26 522.5,670.5C 523.317,668.031 523.817,665.365 524,662.5C 524.035,674.834 524.035,687.168 524,699.5C 525.841,707.067 527.175,714.734 528,722.5C 533.25,763.489 536.416,804.656 537.5,846C 537.499,850.68 537.166,855.18 536.5,859.5 Z"/></g>
<g><path style="opacity:1" fill="#15161b" d="M 711.5,870.5 C 710.883,870.611 710.383,870.944 710,871.5C 709.722,870.584 709.222,869.918 708.5,869.5C 684.731,820.745 659.897,772.412 634,724.5C 625.487,703.479 616.987,682.479 608.5,661.5C 619.287,681.134 628.787,702.134 637,724.5C 641.665,733.155 646.331,741.821 651,750.5C 650.937,754.442 652.603,757.442 656,759.5C 674.632,796.649 693.132,833.649 711.5,870.5 Z"/></g>
<g><path style="opacity:1" fill="#13151d" d="M 591.5,723.5 C 592.811,731.426 593.811,739.426 594.5,747.5C 594.444,752.731 595.111,757.731 596.5,762.5C 597.482,774.819 597.649,787.152 597,799.5C 595.581,813.183 594.081,826.85 592.5,840.5C 591.028,844.919 590.362,849.586 590.5,854.5C 589.545,859.42 588.878,864.42 588.5,869.5C 587.111,874.269 586.444,879.269 586.5,884.5C 585.781,886.764 585.448,889.097 585.5,891.5C 569.82,891.629 554.153,891.296 538.5,890.5C 538.818,885.968 538.485,881.634 537.5,877.5C 537.5,874.5 537.5,871.5 537.5,868.5C 537.338,866.473 537.505,864.473 538,862.5C 540.183,871.349 541.017,880.349 540.5,889.5C 554.5,889.5 568.5,889.5 582.5,889.5C 585.745,863.482 589.579,836.149 594,807.5C 595.161,781.386 593.994,755.386 590.5,729.5C 590.505,727.304 590.838,725.304 591.5,723.5 Z"/></g>
<g><path style="opacity:1" fill="#b3b1b6" d="M 592.5,840.5 C 592.638,845.414 591.972,850.081 590.5,854.5C 590.362,849.586 591.028,844.919 592.5,840.5 Z"/></g>
<g><path style="opacity:1" fill="#0fab9d" d="M 752.5,852.5 C 756.009,857.53 757.509,863.197 757,869.5C 755.482,870.163 754.315,871.163 753.5,872.5C 743.451,876.025 733.785,880.359 724.5,885.5C 721.438,886.47 718.438,887.304 715.5,888C 712.174,882.186 709.841,876.019 708.5,869.5C 709.222,869.918 709.722,870.584 710,871.5C 710.383,870.944 710.883,870.611 711.5,870.5C 725.11,864.191 738.777,858.191 752.5,852.5 Z"/></g>
<g><path style="opacity:1" fill="#b0b1b5" d="M 588.5,869.5 C 588.556,874.731 587.889,879.731 586.5,884.5C 586.444,879.269 587.111,874.269 588.5,869.5 Z"/></g>
<g><path style="opacity:1" fill="#f8ab83" d="M 753.5,872.5 C 757.48,880.601 760.98,888.934 764,897.5C 765.419,899.993 766.919,902.326 768.5,904.5C 768.808,909.371 767.975,914.037 766,918.5C 762.959,927.149 759.459,935.482 755.5,943.5C 755.677,941.019 754.677,939.186 752.5,938C 746.278,935.744 740.111,933.577 734,931.5C 733.501,927.848 733.335,924.182 733.5,920.5C 730.833,920.5 728.167,920.5 725.5,920.5C 727.948,919.527 730.615,919.194 733.5,919.5C 730.868,908.814 727.535,898.314 723.5,888C 723.743,887.098 724.077,886.265 724.5,885.5C 733.785,880.359 743.451,876.025 753.5,872.5 Z"/></g>
<g><path style="opacity:1" fill="#18a89e" d="M 537.5,877.5 C 538.485,881.634 538.818,885.968 538.5,890.5C 554.153,891.296 569.82,891.629 585.5,891.5C 585.524,897.857 585.19,904.19 584.5,910.5C 582.5,910.5 580.5,910.5 578.5,910.5C 566.48,910.165 554.48,909.498 542.5,908.5C 540.559,908.131 538.725,907.464 537,906.5C 536.637,896.829 536.804,887.162 537.5,877.5 Z"/></g>
<g><path style="opacity:1" fill="#f6ab86" d="M 542.5,908.5 C 554.48,909.498 566.48,910.165 578.5,910.5C 578.194,920.25 578.527,929.916 579.5,939.5C 578.127,939.343 576.793,939.51 575.5,940C 569.575,949.094 561.908,956.261 552.5,961.5C 552.67,960.178 552.337,959.011 551.5,958C 541.173,956.214 537.173,950.38 539.5,940.5C 539.379,937.559 538.713,934.892 537.5,932.5C 538.931,932.119 539.764,931.119 540,929.5C 540.687,922.43 541.52,915.43 542.5,908.5 Z"/></g>
<g><path style="opacity:1" fill="#181c29" d="M 755.5,957.5 C 755.5,952.833 755.5,948.167 755.5,943.5C 759.459,935.482 762.959,927.149 766,918.5C 767.975,914.037 768.808,909.371 768.5,904.5C 770.068,903.527 771.735,903.36 773.5,904C 780.943,910.601 786.61,918.434 790.5,927.5C 788.765,930.743 786.432,933.577 783.5,936C 773.956,942.933 764.623,950.1 755.5,957.5 Z"/></g>
<g><path style="opacity:1" fill="#191d2a" d="M 579.5,939.5 C 581.856,942.715 583.356,946.381 584,950.5C 585.978,958.042 586.811,965.709 586.5,973.5C 573.451,974.021 560.451,975.021 547.5,976.5C 547.167,976.5 546.833,976.5 546.5,976.5C 546.575,970.689 548.575,965.689 552.5,961.5C 561.908,956.261 569.575,949.094 575.5,940C 576.793,939.51 578.127,939.343 579.5,939.5 Z"/></g>
<g><path style="opacity:1" fill="#f59a0e" d="M 725.5,920.5 C 728.167,920.5 730.833,920.5 733.5,920.5C 733.335,924.182 733.501,927.848 734,931.5C 740.111,933.577 746.278,935.744 752.5,938C 754.677,939.186 755.677,941.019 755.5,943.5C 755.5,948.167 755.5,952.833 755.5,957.5C 749.833,962.167 744.167,966.833 738.5,971.5C 734.013,972.992 729.68,974.658 725.5,976.5C 715.075,978.229 704.742,979.563 694.5,980.5C 690.833,980.5 687.167,980.5 683.5,980.5C 682.038,973.921 684.371,969.421 690.5,967C 698.011,965.804 705.011,963.304 711.5,959.5C 711.433,952.88 714.433,950.546 720.5,952.5C 720.5,951.167 720.5,949.833 720.5,948.5C 719.5,948.5 718.5,948.5 717.5,948.5C 717.5,947.5 717.5,946.5 717.5,945.5C 719.5,945.5 721.5,945.5 723.5,945.5C 723.361,942.412 722.361,939.745 720.5,937.5C 723.127,938.092 725.794,938.425 728.5,938.5C 728.981,934.651 727.314,932.651 723.5,932.5C 723.332,928.342 723.998,924.342 725.5,920.5 Z"/></g>
<g><path style="opacity:1" fill="#f39b16" d="M 537.5,932.5 C 538.713,934.892 539.379,937.559 539.5,940.5C 537.173,950.38 541.173,956.214 551.5,958C 552.337,959.011 552.67,960.178 552.5,961.5C 548.575,965.689 546.575,970.689 546.5,976.5C 527.085,977.841 507.752,978.841 488.5,979.5C 481.492,979.666 474.492,979.5 467.5,979C 465.75,973.352 467.75,969.352 473.5,967C 482.989,965.642 492.323,963.642 501.5,961C 503.328,959.172 505.161,957.339 507,955.5C 508.465,956.33 509.965,956.496 511.5,956C 512.833,955 512.833,954 511.5,953C 513.347,949.876 515.013,949.876 516.5,953C 520.925,952.911 521.592,951.078 518.5,947.5C 518.833,947.167 519.167,946.833 519.5,946.5C 521.331,947.929 523.331,948.429 525.5,948C 526.95,944.899 525.95,942.899 522.5,942C 523.916,939.735 525.916,938.569 528.5,938.5C 528.178,936.278 528.845,934.444 530.5,933C 532.81,932.503 535.143,932.337 537.5,932.5 Z"/></g>
<g><path style="opacity:1" fill="#f4dcaa" d="M 738.5,971.5 C 734.874,974.495 730.541,976.162 725.5,976.5C 729.68,974.658 734.013,972.992 738.5,971.5 Z"/></g>
<g><path style="opacity:1" fill="#faf3dc" d="M 546.5,976.5 C 546.833,976.5 547.167,976.5 547.5,976.5C 547.389,977.117 547.056,977.617 546.5,978C 527.188,979.267 507.855,979.767 488.5,979.5C 507.752,978.841 527.085,977.841 546.5,976.5 Z"/></g>
<g><path style="opacity:1" fill="#f4e0b5" d="M 725.5,976.5 C 721.163,978.401 716.497,979.568 711.5,980C 705.843,980.499 700.176,980.666 694.5,980.5C 704.742,979.563 715.075,978.229 725.5,976.5 Z"/></g>
<g><path style="opacity:1" fill="#c5bdc3" d="M 687.5,985.5 C 687.5,985.833 687.5,986.167 687.5,986.5C 658.837,987.064 630.17,987.397 601.5,987.5C 578.661,987.831 555.994,987.497 533.5,986.5C 550.857,986.754 568.19,986.254 585.5,985C 586.833,983.333 588.167,981.667 589.5,980C 619.833,979.333 650.167,979.333 680.5,980C 682.996,981.666 685.329,983.5 687.5,985.5 Z"/></g>
<g><path style="opacity:1" fill="#c5bcc3" d="M 736.5,986.5 C 729.313,986.825 722.313,986.491 715.5,985.5C 723.583,985.85 731.25,984.35 738.5,981C 769.172,980.56 799.839,980.893 830.5,982C 836.278,982.094 841.944,982.761 847.5,984C 810.507,985.194 773.507,986.027 736.5,986.5 Z"/></g>
<g><path style="opacity:1" fill="#c4bec4" d="M 352.5,717.5 C 352.333,805.167 352.5,892.834 353,980.5C 356.064,981.783 359.397,982.45 363,982.5C 366.352,982.498 369.518,982.165 372.5,981.5C 373.499,893.668 373.833,805.668 373.5,717.5C 374.167,805.001 374.833,892.668 375.5,980.5C 405.463,979.175 435.463,979.175 465.5,980.5C 466.887,982.21 468.221,983.877 469.5,985.5C 448.673,986.497 427.673,986.831 406.5,986.5C 359.15,986.103 311.817,985.103 264.5,983.5C 293.437,981.189 322.437,980.189 351.5,980.5C 351.167,892.665 351.501,804.998 352.5,717.5 Z"/></g>
<g><path style="opacity:1" fill="#12151d" d="M 352.5,717.5 C 353.268,718.263 353.768,719.263 354,720.5C 354.596,806.509 354.93,892.509 355,978.5C 360.072,979.471 365.238,979.805 370.5,979.5C 371.333,900.334 371.833,821.001 372,741.5C 372.5,821.499 372.667,901.499 372.5,981.5C 369.518,982.165 366.352,982.498 363,982.5C 359.397,982.45 356.064,981.783 353,980.5C 352.5,892.834 352.333,805.167 352.5,717.5 Z"/></g>
<g><path style="opacity:1" fill="#dedede" d="M 687.5,985.5 C 696.833,985.5 706.167,985.5 715.5,985.5C 722.313,986.491 729.313,986.825 736.5,986.5C 720.167,987.833 703.833,987.833 687.5,986.5C 687.5,986.167 687.5,985.833 687.5,985.5 Z"/></g>
<g><path style="opacity:1" fill="#d8d9db" d="M 469.5,985.5 C 490.788,986.478 512.121,986.811 533.5,986.5C 555.994,987.497 578.661,987.831 601.5,987.5C 536.494,988.826 471.494,988.492 406.5,986.5C 427.673,986.831 448.673,986.497 469.5,985.5 Z"/></g>
</svg>
